<svg xmlns="http://www.w3.org/2000/svg" width="21" height="13" viewBox="0 0 21 13">
    <path fill="currentColor" fill-rule="evenodd" d="M0 0h21v13H0V0zm2 3v1h1V3H2zm2 0v1h1V3H4zm2 0v1h1V3H6zm2 0v1h1V3H8zm2 0v1h1V3h-1zm2 0v1h1V3h-1zm2 0v1h1V3h-1zm2 0v1h1V3h-1zm2 0v1h1V3h-1zM2 5v1h1V5H2zm2 0v1h1V5H4zm2 0v1h1V5H6zm2 0v1h1V5H8zm2 0v1h1V5h-1zm2 0v1h1V5h-1zm2 0v1h1V5h-1zm2 0v1h1V5h-1zm2 0v1h1V5h-1zM2 7v1h1V7H2zm2 0v1h1V7H4zm2 0v1h1V7H6zm2 0v1h1V7H8zm2 0v1h1V7h-1zM4 9v1h13V9H4zm8-2v1h1V7h-1zm2 0v1h1V7h-1zm2 0v1h1V7h-1zm2 0v1h1V7h-1z"/>
</svg>
